<?xml version="1.0" encoding="UTF-8" standalone="no"?>
<!-- Generated by IcoMoon.io -->

<svg
   xmlns:dc="http://purl.org/dc/elements/1.1/"
   xmlns:cc="http://creativecommons.org/ns#"
   xmlns:rdf="http://www.w3.org/1999/02/22-rdf-syntax-ns#"
   xmlns:svg="http://www.w3.org/2000/svg"
   xmlns="http://www.w3.org/2000/svg"
   xmlns:sodipodi="http://sodipodi.sourceforge.net/DTD/sodipodi-0.dtd"
   xmlns:inkscape="http://www.inkscape.org/namespaces/inkscape"
   version="1.1"
   width="24"
   height="24"
   viewBox="0 0 24 24"
   id="svg2"
   inkscape:version="0.48.4 r9939"
   sodipodi:docname="settings.svg"
   inkscape:export-filename="/var/www/klokantech/www.klokanstorage.com/img/process.png"
   inkscape:export-xdpi="600"
   inkscape:export-ydpi="600">
  <metadata
     id="metadata10">
    <rdf:RDF>
      <cc:Work
         rdf:about="">
        <dc:format>image/svg+xml</dc:format>
        <dc:type
           rdf:resource="http://purl.org/dc/dcmitype/StillImage" />
        <dc:title></dc:title>
      </cc:Work>
    </rdf:RDF>
  </metadata>
  <defs
     id="defs8" />
  <sodipodi:namedview
     pagecolor="#ffffff"
     bordercolor="#666666"
     borderopacity="1"
     objecttolerance="10"
     gridtolerance="10"
     guidetolerance="10"
     inkscape:pageopacity="0"
     inkscape:pageshadow="2"
     inkscape:window-width="962"
     inkscape:window-height="712"
     id="namedview6"
     showgrid="false"
     inkscape:zoom="9.8333333"
     inkscape:cx="12"
     inkscape:cy="12"
     inkscape:window-x="60"
     inkscape:window-y="80"
     inkscape:window-maximized="0"
     inkscape:current-layer="svg2" />
  <path
     d="m 20.873497,12.419278 c 0.03255,-0.260333 0.05694,-0.524733 0.05694,-0.7932 0,-0.268468 -0.02441,-0.532868 -0.05694,-0.793202 l 1.720634,-1.3464069 c 0.154572,-0.1220247 0.199317,-0.3416855 0.09763,-0.5206639 L 21.064678,6.1468938 C 20.962985,5.971983 20.751466,5.8987645 20.56842,5.971983 L 18.542708,6.7895893 C 18.123735,6.4682416 17.664086,6.1957062 17.167828,5.9882538 L 16.86275,3.8323763 C 16.826142,3.6411947 16.659365,3.49069 16.455982,3.49069 h -3.254155 c -0.203385,0 -0.37016,0.1505047 -0.402701,0.3416863 L 12.494048,5.9882538 C 11.99779,6.1957062 11.538141,6.4641739 11.119168,6.7895893 L 9.0934563,5.971983 c -0.183046,-0.069151 -0.3945654,0 -0.4962586,0.1749108 L 6.9701208,8.9658052 c -0.1016919,0.1749113 -0.056948,0.394566 0.097625,0.5206639 L 8.784312,10.832876 c -0.032546,0.260334 -0.056944,0.524734 -0.056944,0.793202 0,0.268467 0.02441,0.532867 0.056944,0.7932 l -1.7165664,1.346406 c -0.1545724,0.122026 -0.199317,0.341687 -0.097625,0.520665 l 1.6270769,2.818911 c 0.101696,0.174911 0.3132126,0.24813 0.4962586,0.174911 l 2.0257117,-0.817607 c 0.418973,0.321349 0.878622,0.593884 1.37488,0.801336 l 0.305078,2.155878 c 0.03255,0.191182 0.199316,0.341687 0.402701,0.341687 h 3.254155 c 0.203383,0 0.37016,-0.150505 0.402702,-0.341687 L 17.16376,17.2639 c 0.496258,-0.207452 0.955908,-0.475919 1.374881,-0.801336 l 2.02571,0.817607 c 0.183046,0.06915 0.394567,0 0.496259,-0.174911 l 1.627078,-2.818911 c 0.101699,-0.174911 0.05694,-0.394566 -0.09763,-0.520665 l -1.716563,-1.346406 z m -6.044593,2.054185 c -1.574197,0 -2.847386,-1.273188 -2.847386,-2.847385 0,-1.574199 1.273189,-2.8473867 2.847386,-2.8473867 1.574197,0 2.847385,1.2731877 2.847385,2.8473867 0,1.574197 -1.273188,2.847385 -2.847385,2.847385 z"
     id="path4"
     inkscape:connector-curvature="0"
     style="fill:#000000" />
  <path
     d="m 5.392714,18.369524 c 0.00894,-0.07146 0.015632,-0.144041 0.015632,-0.217736 0,-0.07369 -0.0067,-0.146273 -0.015632,-0.217735 l 0.4723173,-0.369591 c 0.04243,-0.03349 0.054712,-0.09379 0.026799,-0.142923 L 5.4451936,16.647742 c -0.027915,-0.04801 -0.085977,-0.06811 -0.1362239,-0.04801 L 4.7529083,16.824163 C 4.6378993,16.735953 4.5117251,16.661142 4.375501,16.604196 L 4.291757,16.012403 c -0.010049,-0.05248 -0.05583,-0.09379 -0.1116588,-0.09379 H 3.286827 c -0.05583,0 -0.1016095,0.04131 -0.1105422,0.09379 l -0.083744,0.591793 c -0.1362248,0.05694 -0.2623992,0.130641 -0.377408,0.219967 L 2.159071,16.599729 c -0.050246,-0.01898 -0.1083091,0 -0.1362239,0.04801 l -0.4466356,0.773797 c -0.027915,0.04801 -0.015633,0.108305 0.026799,0.142923 l 0.4712007,0.369591 c -0.00894,0.07146 -0.015631,0.144039 -0.015631,0.217735 0,0.07369 0.0067,0.146273 0.015631,0.217736 l -0.4712007,0.36959 c -0.04243,0.03349 -0.054712,0.09379 -0.026799,0.142923 l 0.4466356,0.773797 c 0.027915,0.04801 0.085977,0.06811 0.1362239,0.04801 l 0.5560615,-0.224434 c 0.1150085,0.08821 0.2411832,0.163021 0.3774072,0.219968 l 0.083744,0.591793 c 0.00894,0.05248 0.054712,0.09379 0.1105422,0.09379 h 0.8932714 c 0.055829,0 0.1016095,-0.04131 0.1105422,-0.09379 l 0.083744,-0.591793 c 0.1362249,-0.05694 0.2623998,-0.130639 0.3774085,-0.219965 l 0.5560612,0.224434 c 0.050246,0.01898 0.108309,0 0.1362239,-0.04801 l 0.446636,-0.773796 c 0.027916,-0.04801 0.015631,-0.108306 -0.026799,-0.142924 L 5.3927145,18.369525 z m -1.6592519,0.563877 c -0.43212,0 -0.7816125,-0.349493 -0.7816125,-0.781613 0,-0.43212 0.3494925,-0.781613 0.7816125,-0.781613 0.4321199,0 0.7816124,0.349493 0.7816124,0.781613 0,0.43212 -0.3494925,0.781613 -0.7816124,0.781613 z"
     id="path4-2"
     inkscape:connector-curvature="0"
     style="fill:#000000" />
</svg>
